<?xml version="1.0" encoding="UTF-8" standalone="no"?><!DOCTYPE svg PUBLIC "-//W3C//DTD SVG 1.1//EN" "http://www.w3.org/Graphics/SVG/1.1/DTD/svg11.dtd"><svg width="100%" height="100%" viewBox="0 0 2250 2250" version="1.1" xmlns="http://www.w3.org/2000/svg" xmlns:xlink="http://www.w3.org/1999/xlink" xml:space="preserve" xmlns:serif="http://www.serif.com/" style="fill-rule:evenodd;clip-rule:evenodd;stroke-linecap:round;stroke-linejoin:round;stroke-miterlimit:1.5;"><path d="M1107.69,1251.52c0,-0 44.865,295.624 44.403,445.526c-0.247,80.169 -52.647,212.504 -64.105,325.836c-12.13,119.968 16.651,218.826 16.651,218.826" style="fill:none;stroke:#f00;stroke-width:2.08px;"/><path d="M1082.12,1225.82c-119.457,-46.992 -402.031,-315.361 -408.22,-733.243c-3.388,-228.728 126.674,-484.347 440.55,-476.786c346.422,8.346 479.57,317.683 436.373,616.789c-27.686,191.701 -206.33,504.919 -396.323,594.247l53.4,70.564c-0.569,5.45 -5.079,10.892 -11.792,12.485c-18.333,4.351 -26.473,16.571 -37.794,25.658c-19.495,-0.886 -74.676,-14.149 -92.788,-18.574c-12.374,-3.024 -9.318,-6.538 -9.318,-6.538l-16.137,-1.588c20.12,-31.741 41.522,-64.336 42.049,-83.014Z" style="fill:#f00;stroke:#f00;stroke-width:2.08px;"/></svg>