<?xml version="1.0" encoding="UTF-8" standalone="no"?>
<!DOCTYPE svg PUBLIC "-//W3C//DTD SVG 1.1//EN" "http://www.w3.org/Graphics/SVG/1.1/DTD/svg11.dtd">
<svg width="100%" height="100%" viewBox="0 0 1902 522" version="1.1" xmlns="http://www.w3.org/2000/svg" xmlns:xlink="http://www.w3.org/1999/xlink" xml:space="preserve" xmlns:serif="http://www.serif.com/" style="fill-rule:evenodd;clip-rule:evenodd;stroke-linejoin:round;stroke-miterlimit:2;">
    <g transform="matrix(1,0,0,1,-14.7066,-265.306)">
        <g transform="matrix(1.07442,0,0,1.07442,-99.4596,49.5455)">
            <g>
                <g transform="matrix(3.30164,0,0,2.47623,-2142.93,-434.173)">
                    <path d="M699.849,416.753C698.486,417.086 697.241,416.741 696.114,415.717C694.987,414.693 694.263,413.266 693.941,411.435C692.102,401.304 689.617,391.173 686.487,381.044C685.969,379.324 685.947,377.624 686.42,375.943C686.893,374.262 687.728,372.993 688.926,372.137C690.154,371.336 691.411,371.217 692.697,371.779C693.984,372.341 694.891,373.434 695.42,375.058C695.523,375.471 695.707,376.083 695.972,376.895C696.236,377.707 696.42,378.32 696.524,378.733C696.751,379.366 697.092,379.454 697.546,378.999L706.584,369.935C707.038,369.479 707.094,368.949 706.752,368.344L703.54,362.649C702.67,361.108 702.338,359.374 702.542,357.446C702.747,355.518 703.448,353.953 704.644,352.753C705.841,351.553 707.144,351.085 708.554,351.351C709.964,351.617 711.12,352.548 712.02,354.144L715.233,359.838C715.574,360.444 715.972,360.519 716.426,360.063L732.148,344.294C733.098,343.342 734.187,342.982 735.416,343.213C736.645,343.445 737.617,344.194 738.331,345.459C739.045,346.725 739.315,348.177 739.141,349.816C738.967,351.455 738.406,352.751 737.457,353.703L721.734,369.472C721.28,369.927 721.224,370.458 721.565,371.063L728.643,383.608C729.016,384.268 729.429,384.371 729.883,383.915L742.634,371.126C743.542,370.215 744.585,369.859 745.762,370.056C746.94,370.254 747.886,370.985 748.6,372.251C749.314,373.516 749.578,374.931 749.394,376.494C749.21,378.057 748.664,379.294 747.756,380.205L735.005,392.994C734.551,393.449 734.495,393.98 734.836,394.585L744.009,410.844C744.382,411.504 744.795,411.607 745.249,411.152L763.014,393.333C763.963,392.381 765.045,392.007 766.258,392.212C767.472,392.416 768.436,393.151 769.15,394.416C769.864,395.682 770.134,397.134 769.96,398.773C769.786,400.412 769.225,401.708 768.276,402.659L720.86,450.216C719.911,451.168 718.822,451.528 717.593,451.297C716.363,451.065 715.392,450.316 714.678,449.051C713.964,447.785 713.701,446.347 713.891,444.735C714.08,443.124 714.649,441.842 715.598,440.89L735.407,421.023C735.86,420.568 735.901,420.01 735.529,419.35L726.356,403.091C726.014,402.485 725.616,402.41 725.163,402.866L713.711,414.351C712.803,415.262 711.76,415.618 710.583,415.421C709.405,415.224 708.46,414.492 707.746,413.227C707.032,411.961 706.767,410.547 706.951,408.983C707.135,407.42 707.681,406.183 708.589,405.273L720.041,393.787C720.495,393.332 720.535,392.774 720.163,392.114L713.085,379.568C712.744,378.963 712.346,378.888 711.892,379.344L700.75,390.519C700.255,391.015 700.1,391.601 700.287,392.275C701.729,398.153 702.886,403.755 703.76,409.082C704.051,410.858 703.805,412.484 703.021,413.959C702.238,415.433 701.18,416.365 699.849,416.753Z" style="fill:rgb(220,62,0);fill-rule:nonzero;"/>
                    <path d="M772.182,346.312C771.128,346.878 770.076,346.849 769.025,346.226C767.974,345.603 767.236,344.589 766.811,343.184C766.387,341.779 766.396,340.382 766.839,338.994C767.283,337.605 768.055,336.615 769.157,336.023C775.048,332.858 784.019,327.817 796.07,320.899C796.309,320.77 796.45,320.546 796.493,320.226C796.535,319.906 796.494,319.631 796.369,319.402C795.532,317.921 794.55,316.147 793.425,314.08C793.136,313.493 792.704,313.353 792.129,313.662C783.844,318.484 776.396,322.67 769.786,326.221C768.732,326.787 767.689,326.79 766.658,326.231C765.626,325.672 764.888,324.658 764.444,323.189C764.02,321.784 764.029,320.387 764.472,318.999C764.916,317.61 765.664,316.633 766.718,316.067C772.897,312.748 779.889,308.806 787.696,304.241C787.936,304.112 788.101,303.875 788.191,303.53C788.281,303.184 788.264,302.897 788.139,302.667C788.014,302.437 787.845,302.064 787.634,301.547C787.422,301.03 787.277,300.643 787.2,300.388C786.602,298.779 786.547,297.12 787.032,295.412C787.518,293.703 788.365,292.451 789.571,291.654C790.797,290.921 792.058,290.856 793.354,291.459C794.65,292.062 795.596,293.168 796.194,294.777L797.191,297.248C797.518,297.963 797.969,298.166 798.544,297.857C801.427,296.16 805.733,293.551 811.46,290.028C812.495,289.399 813.54,289.357 814.596,289.903C815.652,290.449 816.416,291.412 816.888,292.791C817.38,294.234 817.409,295.666 816.975,297.087C816.542,298.508 815.808,299.533 814.773,300.163C812.149,301.795 808.193,304.18 802.905,307.317C802.379,307.6 802.279,308.099 802.606,308.814C802.895,309.401 803.924,311.149 805.694,314.059C806.031,314.62 806.462,314.759 806.989,314.476C808.359,313.666 810.373,312.455 813.031,310.841C815.689,309.228 817.655,308.042 818.929,307.283C819.963,306.653 821.008,306.612 822.064,307.158C823.12,307.704 823.884,308.667 824.357,310.046C824.829,311.426 824.865,312.835 824.465,314.275C824.065,315.714 823.348,316.749 822.313,317.379C821.279,318.009 819.722,318.938 817.644,320.166C815.565,321.394 814.009,322.323 812.974,322.952C812.783,323.055 812.678,323.26 812.659,323.567C812.64,323.874 812.717,324.13 812.89,324.334C814.918,326.807 816.859,328.994 818.714,330.893C819.915,332.103 820.617,333.693 820.823,335.661C821.028,337.629 820.657,339.35 819.71,340.824C817.473,344.475 814.413,346.416 810.53,346.646C806.158,346.916 802.175,348.016 798.583,349.945C794.464,352.158 791.706,354.363 790.31,356.56C788.914,358.758 788.593,361.102 789.345,363.592C790.368,366.977 792.438,368.76 795.555,368.942C798.671,369.123 803.487,367.465 810.001,363.965C813.929,361.856 818.148,359.144 822.658,355.83C823.702,355.047 824.802,354.864 825.958,355.283C827.114,355.701 827.976,356.574 828.545,357.901C829.132,359.293 829.257,360.766 828.92,362.321C828.582,363.875 827.915,365.031 826.92,365.789C822.409,369.103 817.831,372.007 813.185,374.503C794.84,384.357 783.612,382.483 779.502,368.88C777.881,363.515 778.394,358.303 781.041,353.244C783.688,348.185 788.532,343.765 795.573,339.983C799.5,337.873 803.655,336.606 808.036,336.183L808.18,336.105L808.093,335.818C806.969,334.492 805.397,332.515 803.379,329.888C802.994,329.353 802.515,329.239 801.94,329.548C790.34,336.298 780.421,341.886 772.182,346.312Z" style="fill:rgb(220,62,0);fill-rule:nonzero;"/>
                    <path d="M849.275,289.073C848.001,289.348 846.858,288.984 845.848,287.981C844.837,286.978 844.228,285.627 844.022,283.928C843.817,282.229 844.1,280.685 844.874,279.298C845.647,277.911 846.671,277.08 847.945,276.806C865.168,273.025 882.94,268.602 901.262,263.538C902.528,263.196 903.701,263.484 904.78,264.402C905.859,265.32 906.527,266.623 906.783,268.312C907.04,270 906.816,271.6 906.11,273.112C905.404,274.625 904.426,275.62 903.176,276.098C892.694,280.24 885.088,285.68 880.36,292.418C875.632,299.156 873.738,306.399 874.677,314.148C875.501,320.945 877.885,325.941 881.829,329.136C885.773,332.332 890.575,333.32 896.233,332.1C897.712,331.782 899.28,331.339 900.937,330.773C902.195,330.362 903.396,330.557 904.539,331.357C905.682,332.157 906.429,333.356 906.779,334.954C907.147,336.688 907.019,338.337 906.398,339.901C905.777,341.465 904.841,342.486 903.592,342.964C901.339,343.798 899.218,344.43 897.23,344.858C888.309,346.78 880.831,345.288 874.796,340.381C868.762,335.474 865.13,327.957 863.903,317.83C863.153,311.644 863.893,305.452 866.123,299.252C868.354,293.053 871.889,287.478 876.729,282.53C876.78,282.519 876.797,282.445 876.781,282.309L876.704,282.326C868.903,284.425 859.76,286.674 849.275,289.073Z" style="fill:rgb(220,62,0);fill-rule:nonzero;"/>
                    <path d="M935.425,275.026C934.136,274.951 933.072,274.286 932.234,273.032C931.396,271.777 931.005,270.29 931.061,268.57C931.117,266.851 931.629,265.416 932.597,264.266C933.565,263.116 934.694,262.578 935.983,262.653C953.423,263.594 971.499,264.055 990.21,264.036C991.502,264.041 992.607,264.64 993.524,265.83C994.442,267.02 994.898,268.477 994.894,270.199C994.89,271.922 994.427,273.428 993.506,274.719C992.586,276.01 991.477,276.721 990.18,276.852C979.286,278.082 971.013,281.359 965.36,286.683C959.708,292.007 956.754,298.59 956.499,306.431C956.275,313.31 957.852,318.846 961.23,323.039C964.608,327.231 969.16,329.494 974.887,329.825C976.383,329.912 977.986,329.901 979.695,329.794C980.989,329.731 982.135,330.245 983.134,331.337C984.132,332.428 984.681,333.804 984.782,335.464C984.879,337.261 984.504,338.842 983.659,340.205C982.813,341.569 981.742,342.317 980.446,342.449C978.113,342.658 975.941,342.705 973.929,342.588C964.9,342.065 957.803,338.588 952.637,332.155C947.471,325.722 945.055,317.381 945.389,307.132C945.593,300.872 947.257,295.007 950.381,289.537C953.506,284.067 957.813,279.561 963.304,276.02C963.356,276.023 963.384,275.955 963.388,275.818L963.311,275.813C955.353,275.766 946.057,275.503 935.425,275.026Z" style="fill:rgb(220,62,0);fill-rule:nonzero;"/>
                    <path d="M1046.51,288.774C1046.66,288.541 1046.84,288.176 1047.04,287.677C1047.25,287.178 1047.42,286.812 1047.57,286.58C1047.73,286.348 1047.75,286.073 1047.65,285.754C1047.56,285.436 1047.41,285.243 1047.21,285.174L1041.21,283.108C1040.21,282.764 1039.44,281.983 1038.9,280.767C1038.36,279.551 1038.22,278.276 1038.48,276.943C1038.74,275.61 1039.32,274.601 1040.23,273.917C1041.13,273.234 1042.09,273.064 1043.09,273.408L1051.56,276.326C1051.96,276.464 1052.26,276.283 1052.46,275.784C1053.08,274.288 1053.97,273.228 1055.16,272.606C1056.35,271.983 1057.56,271.921 1058.8,272.418L1060.71,273.289C1061.68,273.767 1062.36,274.604 1062.74,275.802C1063.12,277 1063.07,278.19 1062.57,279.37C1062.38,279.802 1062.46,280.079 1062.81,280.199L1075.71,284.641C1077.46,285.243 1078.8,286.593 1079.72,288.69C1080.65,290.787 1080.89,293.002 1080.44,295.335L1079.47,300.335C1079.37,300.868 1079.52,301.204 1079.91,301.342L1080.52,301.548C1081.57,301.91 1082.36,302.699 1082.9,303.915C1083.43,305.131 1083.57,306.439 1083.3,307.839C1083.03,309.239 1082.43,310.314 1081.51,311.065C1080.59,311.815 1079.61,312.009 1078.56,311.648L1034.09,296.336C1033.04,295.974 1032.24,295.169 1031.71,293.919C1031.18,292.67 1031.05,291.345 1031.32,289.945C1031.59,288.545 1032.18,287.486 1033.1,286.769C1034.01,286.052 1034.99,285.875 1036.04,286.236L1045.19,289.386C1045.79,289.593 1046.23,289.389 1046.51,288.774ZM1057.26,291.089C1057.06,291.588 1056.88,291.953 1056.73,292.185C1056.58,292.418 1056.55,292.676 1056.66,292.961C1056.76,293.246 1056.91,293.423 1057.12,293.492L1068.44,297.391C1068.99,297.58 1069.34,297.308 1069.48,296.575L1069.92,294.275C1070.08,293.475 1069.88,292.98 1069.33,292.791L1059.13,289.279C1058.58,289.09 1058.13,289.328 1057.79,289.992C1057.64,290.224 1057.46,290.59 1057.26,291.089ZM1070.81,352.925C1071.9,353.303 1072.73,354.138 1073.28,355.43C1073.83,356.721 1073.96,358.1 1073.68,359.567C1073.39,361.034 1072.78,362.138 1071.84,362.88C1070.89,363.621 1069.87,363.803 1068.77,363.424L1057.67,359.603C1057.12,359.413 1056.78,359.685 1056.63,360.419L1056.36,361.819C1056,363.685 1055.19,365.113 1053.93,366.102C1052.67,367.091 1051.32,367.336 1049.87,366.837C1048.42,366.338 1047.33,365.27 1046.61,363.634C1045.89,361.999 1045.71,360.214 1046.09,358.281L1046.36,356.881C1046.5,356.148 1046.3,355.686 1045.75,355.497L1023.47,347.828C1022.37,347.449 1021.54,346.631 1020.99,345.373C1020.43,344.115 1020.3,342.752 1020.58,341.285C1020.86,339.819 1021.48,338.698 1022.43,337.923C1023.38,337.148 1024.41,336.95 1025.51,337.328L1027.31,337.948C1027.86,338.137 1028.19,337.899 1028.33,337.232L1028.87,334.432C1028.96,333.965 1028.8,333.663 1028.4,333.526L1027.65,333.267C1026.7,332.94 1025.97,332.19 1025.45,331.015C1024.93,329.841 1024.8,328.587 1025.06,327.254C1025.32,325.921 1025.87,324.92 1026.72,324.253C1027.57,323.585 1028.49,323.423 1029.49,323.768L1050.49,330.998C1051.04,331.187 1051.39,330.915 1051.53,330.182L1051.74,329.082C1051.9,328.282 1051.7,327.787 1051.15,327.598L1036.22,322.459C1034.48,321.857 1033.14,320.507 1032.21,318.41C1031.28,316.313 1031.05,314.098 1031.5,311.765L1032.23,307.965C1032.68,305.631 1033.7,303.847 1035.27,302.61C1036.84,301.374 1038.5,301.057 1040.25,301.66L1071.75,312.505C1073.5,313.107 1074.84,314.457 1075.77,316.554C1076.7,318.651 1076.93,320.866 1076.48,323.199L1075.75,326.999C1075.29,329.333 1074.28,331.117 1072.71,332.354C1071.14,333.59 1069.47,333.907 1067.72,333.304L1063.08,331.703C1062.53,331.514 1062.17,331.819 1062.02,332.619L1061.8,333.719C1061.66,334.453 1061.87,334.914 1062.42,335.103L1071.94,338.383C1072.94,338.727 1073.69,339.465 1074.19,340.598C1074.69,341.73 1074.81,342.963 1074.56,344.296C1074.3,345.629 1073.73,346.642 1072.85,347.334C1071.97,348.027 1071.05,348.209 1070.1,347.882L1060.58,344.603C1060.03,344.414 1059.68,344.686 1059.54,345.419L1059.09,347.719C1058.95,348.452 1059.15,348.914 1059.7,349.103L1070.81,352.925ZM1048.82,344.181L1049.26,341.881C1049.41,341.148 1049.2,340.687 1048.65,340.497L1039.35,337.296C1038.75,337.089 1038.38,337.352 1038.24,338.086L1037.79,340.386C1037.65,341.119 1037.88,341.589 1038.48,341.795L1047.78,344.997C1048.33,345.187 1048.68,344.915 1048.82,344.181ZM1041.95,316.005L1065.06,323.958C1065.61,324.148 1065.96,323.842 1066.11,323.042L1066.62,320.443C1066.76,319.709 1066.55,319.248 1066,319.059L1042.9,311.105C1042.35,310.916 1042.01,311.188 1041.87,311.921L1041.36,314.521C1041.21,315.321 1041.4,315.816 1041.95,316.005ZM1012.69,312.222C1011.79,313.265 1010.75,313.421 1009.56,312.691C1008.37,311.961 1007.79,310.786 1007.84,309.166C1007.88,303.99 1009.44,299.372 1012.52,295.312C1018.03,288.105 1022.89,279.112 1027.11,268.334C1027.73,266.771 1028.67,265.691 1029.93,265.094C1031.2,264.498 1032.45,264.59 1033.68,265.371C1034.92,266.152 1035.76,267.367 1036.22,269.016C1036.67,270.666 1036.61,272.281 1036.04,273.862C1033.8,279.917 1031.47,285.195 1029.05,289.696C1028.74,290.227 1028.49,290.926 1028.33,291.793L1017.25,348.991C1016.91,350.725 1016.17,352.032 1015.01,352.914C1013.85,353.795 1012.62,354.012 1011.32,353.564C1010.02,353.117 1009.04,352.138 1008.37,350.628C1007.7,349.119 1007.54,347.497 1007.87,345.764L1014.69,310.564C1014.72,310.431 1014.67,310.31 1014.56,310.2C1014.45,310.09 1014.35,310.093 1014.28,310.21L1012.69,312.222Z" style="fill:rgb(220,62,0);fill-rule:nonzero;"/>
                    <path d="M1133.39,391.978C1139.28,375.721 1142.96,359.365 1144.42,342.909C1144.6,341.16 1145.2,339.759 1146.24,338.704C1147.28,337.65 1148.43,337.301 1149.69,337.657C1151.12,338.05 1152.27,338.987 1153.13,340.468C1154.01,341.948 1154.36,343.61 1154.21,345.452C1153,362.872 1149.12,380.56 1142.54,398.516C1141.9,400.248 1140.9,401.388 1139.54,401.937C1138.18,402.486 1136.86,402.305 1135.58,401.395C1134.35,400.516 1133.53,399.168 1133.12,397.351C1132.71,395.533 1132.8,393.742 1133.39,391.978ZM1096.17,385.761C1092.3,382.996 1090.13,376.915 1089.66,367.517C1089.19,358.12 1090.97,348.414 1094.99,338.402C1098.41,329.906 1102.66,321.735 1107.75,313.888C1108.75,312.417 1109.96,311.585 1111.39,311.392C1112.82,311.2 1114.15,311.666 1115.4,312.792C1116.51,313.82 1117.14,315.207 1117.28,316.953C1117.43,318.699 1117.09,320.249 1116.25,321.603C1111.33,329.333 1107.29,337.112 1104.14,344.94C1101.43,351.676 1099.96,357.927 1099.72,363.694C1099.48,369.461 1100.16,372.913 1101.75,374.052C1102.71,374.735 1104.48,374.378 1107.06,372.982C1109.64,371.586 1112.72,369.077 1116.28,365.454C1117.33,364.323 1118.53,363.852 1119.88,364.042C1121.24,364.233 1122.36,364.991 1123.23,366.318C1124.15,367.677 1124.55,369.233 1124.43,370.984C1124.31,372.735 1123.73,374.177 1122.69,375.308C1117.47,380.87 1112.46,384.515 1107.66,386.243C1102.87,387.971 1099.04,387.81 1096.17,385.761Z" style="fill:rgb(220,62,0);fill-rule:nonzero;"/>
                    <path d="M1187.2,435.796C1185.82,435.76 1184.64,435.115 1183.69,433.858C1182.73,432.601 1182.23,431.048 1182.18,429.199C1182.14,427.349 1182.57,425.762 1183.47,424.439L1202.49,396.65C1203.65,394.886 1205.12,393.983 1206.89,393.942C1208.66,393.9 1210.17,394.701 1211.42,396.344C1212.67,397.988 1213.29,399.99 1213.29,402.351C1213.28,404.713 1212.63,406.679 1211.32,408.249L1190.76,434.009C1189.78,435.235 1188.59,435.831 1187.2,435.796ZM1179.51,439.96C1180.57,441.362 1181.11,443.06 1181.12,445.056C1181.13,447.052 1180.61,448.762 1179.56,450.184C1178.51,451.606 1177.24,452.324 1175.74,452.338C1174.24,452.353 1172.96,451.659 1171.89,450.258L1171.56,449.823C1170.5,448.421 1169.96,446.722 1169.95,444.726C1169.93,442.73 1170.45,441.021 1171.51,439.599C1172.56,438.177 1173.83,437.459 1175.33,437.444C1176.83,437.43 1178.11,438.123 1179.17,439.525L1179.51,439.96Z" style="fill:rgb(220,62,0);fill-rule:nonzero;"/>
                </g>
                <g transform="matrix(3.35664,0,0,2.51748,-2196.67,-460.392)">
                    <path d="M699.849,416.753C698.486,417.086 697.241,416.741 696.114,415.717C694.987,414.693 694.263,413.266 693.941,411.435C692.102,401.304 689.617,391.173 686.487,381.044C685.969,379.324 685.947,377.624 686.42,375.943C686.893,374.262 687.728,372.993 688.926,372.137C690.154,371.336 691.411,371.217 692.697,371.779C693.984,372.341 694.891,373.434 695.42,375.058C695.523,375.471 695.707,376.083 695.972,376.895C696.236,377.707 696.42,378.32 696.524,378.733C696.751,379.366 697.092,379.454 697.546,378.999L706.584,369.935C707.038,369.479 707.094,368.949 706.752,368.344L703.54,362.649C702.67,361.108 702.338,359.374 702.542,357.446C702.747,355.518 703.448,353.953 704.644,352.753C705.841,351.553 707.144,351.085 708.554,351.351C709.964,351.617 711.12,352.548 712.02,354.144L715.233,359.838C715.574,360.444 715.972,360.519 716.426,360.063L732.148,344.294C733.098,343.342 734.187,342.982 735.416,343.213C736.645,343.445 737.617,344.194 738.331,345.459C739.045,346.725 739.315,348.177 739.141,349.816C738.967,351.455 738.406,352.751 737.457,353.703L721.734,369.472C721.28,369.927 721.224,370.458 721.565,371.063L728.643,383.608C729.016,384.268 729.429,384.371 729.883,383.915L742.634,371.126C743.542,370.215 744.585,369.859 745.762,370.056C746.94,370.254 747.886,370.985 748.6,372.251C749.314,373.516 749.578,374.931 749.394,376.494C749.21,378.057 748.664,379.294 747.756,380.205L735.005,392.994C734.551,393.449 734.495,393.98 734.836,394.585L744.009,410.844C744.382,411.504 744.795,411.607 745.249,411.152L763.014,393.333C763.963,392.381 765.045,392.007 766.258,392.212C767.472,392.416 768.436,393.151 769.15,394.416C769.864,395.682 770.134,397.134 769.96,398.773C769.786,400.412 769.225,401.708 768.276,402.659L720.86,450.216C719.911,451.168 718.822,451.528 717.593,451.297C716.363,451.065 715.392,450.316 714.678,449.051C713.964,447.785 713.701,446.347 713.891,444.735C714.08,443.124 714.649,441.842 715.598,440.89L735.407,421.023C735.86,420.568 735.901,420.01 735.529,419.35L726.356,403.091C726.014,402.485 725.616,402.41 725.163,402.866L713.711,414.351C712.803,415.262 711.76,415.618 710.583,415.421C709.405,415.224 708.46,414.492 707.746,413.227C707.032,411.961 706.767,410.547 706.951,408.983C707.135,407.42 707.681,406.183 708.589,405.273L720.041,393.787C720.495,393.332 720.535,392.774 720.163,392.114L713.085,379.568C712.744,378.963 712.346,378.888 711.892,379.344L700.75,390.519C700.255,391.015 700.1,391.601 700.287,392.275C701.729,398.153 702.886,403.755 703.76,409.082C704.051,410.858 703.805,412.484 703.021,413.959C702.238,415.433 701.18,416.365 699.849,416.753Z" style="fill:rgb(232,70,0);fill-rule:nonzero;"/>
                    <path d="M772.182,346.312C771.128,346.878 770.076,346.849 769.025,346.226C767.974,345.603 767.236,344.589 766.811,343.184C766.387,341.779 766.396,340.382 766.839,338.994C767.283,337.605 768.055,336.615 769.157,336.023C775.048,332.858 784.019,327.817 796.07,320.899C796.309,320.77 796.45,320.546 796.493,320.226C796.535,319.906 796.494,319.631 796.369,319.402C795.532,317.921 794.55,316.147 793.425,314.08C793.136,313.493 792.704,313.353 792.129,313.662C783.844,318.484 776.396,322.67 769.786,326.221C768.732,326.787 767.689,326.79 766.658,326.231C765.626,325.672 764.888,324.658 764.444,323.189C764.02,321.784 764.029,320.387 764.472,318.999C764.916,317.61 765.664,316.633 766.718,316.067C772.897,312.748 779.889,308.806 787.696,304.241C787.936,304.112 788.101,303.875 788.191,303.53C788.281,303.184 788.264,302.897 788.139,302.667C788.014,302.437 787.845,302.064 787.634,301.547C787.422,301.03 787.277,300.643 787.2,300.388C786.602,298.779 786.547,297.12 787.032,295.412C787.518,293.703 788.365,292.451 789.571,291.654C790.797,290.921 792.058,290.856 793.354,291.459C794.65,292.062 795.596,293.168 796.194,294.777L797.191,297.248C797.518,297.963 797.969,298.166 798.544,297.857C801.427,296.16 805.733,293.551 811.46,290.028C812.495,289.399 813.54,289.357 814.596,289.903C815.652,290.449 816.416,291.412 816.888,292.791C817.38,294.234 817.409,295.666 816.975,297.087C816.542,298.508 815.808,299.533 814.773,300.163C812.149,301.795 808.193,304.18 802.905,307.317C802.379,307.6 802.279,308.099 802.606,308.814C802.895,309.401 803.924,311.149 805.694,314.059C806.031,314.62 806.462,314.759 806.989,314.476C808.359,313.666 810.373,312.455 813.031,310.841C815.689,309.228 817.655,308.042 818.929,307.283C819.963,306.653 821.008,306.612 822.064,307.158C823.12,307.704 823.884,308.667 824.357,310.046C824.829,311.426 824.865,312.835 824.465,314.275C824.065,315.714 823.348,316.749 822.313,317.379C821.279,318.009 819.722,318.938 817.644,320.166C815.565,321.394 814.009,322.323 812.974,322.952C812.783,323.055 812.678,323.26 812.659,323.567C812.64,323.874 812.717,324.13 812.89,324.334C814.918,326.807 816.859,328.994 818.714,330.893C819.915,332.103 820.617,333.693 820.823,335.661C821.028,337.629 820.657,339.35 819.71,340.824C817.473,344.475 814.413,346.416 810.53,346.646C806.158,346.916 802.175,348.016 798.583,349.945C794.464,352.158 791.706,354.363 790.31,356.56C788.914,358.758 788.593,361.102 789.345,363.592C790.368,366.977 792.438,368.76 795.555,368.942C798.671,369.123 803.487,367.465 810.001,363.965C813.929,361.856 818.148,359.144 822.658,355.83C823.702,355.047 824.802,354.864 825.958,355.283C827.114,355.701 827.976,356.574 828.545,357.901C829.132,359.293 829.257,360.766 828.92,362.321C828.582,363.875 827.915,365.031 826.92,365.789C822.409,369.103 817.831,372.007 813.185,374.503C794.84,384.357 783.612,382.483 779.502,368.88C777.881,363.515 778.394,358.303 781.041,353.244C783.688,348.185 788.532,343.765 795.573,339.983C799.5,337.873 803.655,336.606 808.036,336.183L808.18,336.105L808.093,335.818C806.969,334.492 805.397,332.515 803.379,329.888C802.994,329.353 802.515,329.239 801.94,329.548C790.34,336.298 780.421,341.886 772.182,346.312Z" style="fill:rgb(232,70,0);fill-rule:nonzero;"/>
                    <path d="M849.275,289.073C848.001,289.348 846.858,288.984 845.848,287.981C844.837,286.978 844.228,285.627 844.022,283.928C843.817,282.229 844.1,280.685 844.874,279.298C845.647,277.911 846.671,277.08 847.945,276.806C865.168,273.025 882.94,268.602 901.262,263.538C902.528,263.196 903.701,263.484 904.78,264.402C905.859,265.32 906.527,266.623 906.783,268.312C907.04,270 906.816,271.6 906.11,273.112C905.404,274.625 904.426,275.62 903.176,276.098C892.694,280.24 885.088,285.68 880.36,292.418C875.632,299.156 873.738,306.399 874.677,314.148C875.501,320.945 877.885,325.941 881.829,329.136C885.773,332.332 890.575,333.32 896.233,332.1C897.712,331.782 899.28,331.339 900.937,330.773C902.195,330.362 903.396,330.557 904.539,331.357C905.682,332.157 906.429,333.356 906.779,334.954C907.147,336.688 907.019,338.337 906.398,339.901C905.777,341.465 904.841,342.486 903.592,342.964C901.339,343.798 899.218,344.43 897.23,344.858C888.309,346.78 880.831,345.288 874.796,340.381C868.762,335.474 865.13,327.957 863.903,317.83C863.153,311.644 863.893,305.452 866.123,299.252C868.354,293.053 871.889,287.478 876.729,282.53C876.78,282.519 876.797,282.445 876.781,282.309L876.704,282.326C868.903,284.425 859.76,286.674 849.275,289.073Z" style="fill:rgb(232,70,0);fill-rule:nonzero;"/>
                    <path d="M935.425,275.026C934.136,274.951 933.072,274.286 932.234,273.032C931.396,271.777 931.005,270.29 931.061,268.57C931.117,266.851 931.629,265.416 932.597,264.266C933.565,263.116 934.694,262.578 935.983,262.653C953.423,263.594 971.499,264.055 990.21,264.036C991.502,264.041 992.607,264.64 993.524,265.83C994.442,267.02 994.898,268.477 994.894,270.199C994.89,271.922 994.427,273.428 993.506,274.719C992.586,276.01 991.477,276.721 990.18,276.852C979.286,278.082 971.013,281.359 965.36,286.683C959.708,292.007 956.754,298.59 956.499,306.431C956.275,313.31 957.852,318.846 961.23,323.039C964.608,327.231 969.16,329.494 974.887,329.825C976.383,329.912 977.986,329.901 979.695,329.794C980.989,329.731 982.135,330.245 983.134,331.337C984.132,332.428 984.681,333.804 984.782,335.464C984.879,337.261 984.504,338.842 983.659,340.205C982.813,341.569 981.742,342.317 980.446,342.449C978.113,342.658 975.941,342.705 973.929,342.588C964.9,342.065 957.803,338.588 952.637,332.155C947.471,325.722 945.055,317.381 945.389,307.132C945.593,300.872 947.257,295.007 950.381,289.537C953.506,284.067 957.813,279.561 963.304,276.02C963.356,276.023 963.384,275.955 963.388,275.818L963.311,275.813C955.353,275.766 946.057,275.503 935.425,275.026Z" style="fill:rgb(232,70,0);fill-rule:nonzero;"/>
                    <path d="M1046.51,288.774C1046.66,288.541 1046.84,288.176 1047.04,287.677C1047.25,287.178 1047.42,286.812 1047.57,286.58C1047.73,286.348 1047.75,286.073 1047.65,285.754C1047.56,285.436 1047.41,285.243 1047.21,285.174L1041.21,283.108C1040.21,282.764 1039.44,281.983 1038.9,280.767C1038.36,279.551 1038.22,278.276 1038.48,276.943C1038.74,275.61 1039.32,274.601 1040.23,273.917C1041.13,273.234 1042.09,273.064 1043.09,273.408L1051.56,276.326C1051.96,276.464 1052.26,276.283 1052.46,275.784C1053.08,274.288 1053.97,273.228 1055.16,272.606C1056.35,271.983 1057.56,271.921 1058.8,272.418L1060.71,273.289C1061.68,273.767 1062.36,274.604 1062.74,275.802C1063.12,277 1063.07,278.19 1062.57,279.37C1062.38,279.802 1062.46,280.079 1062.81,280.199L1075.71,284.641C1077.46,285.243 1078.8,286.593 1079.72,288.69C1080.65,290.787 1080.89,293.002 1080.44,295.335L1079.47,300.335C1079.37,300.868 1079.52,301.204 1079.91,301.342L1080.52,301.548C1081.57,301.91 1082.36,302.699 1082.9,303.915C1083.43,305.131 1083.57,306.439 1083.3,307.839C1083.03,309.239 1082.43,310.314 1081.51,311.065C1080.59,311.815 1079.61,312.009 1078.56,311.648L1034.09,296.336C1033.04,295.974 1032.24,295.169 1031.71,293.919C1031.18,292.67 1031.05,291.345 1031.32,289.945C1031.59,288.545 1032.18,287.486 1033.1,286.769C1034.01,286.052 1034.99,285.875 1036.04,286.236L1045.19,289.386C1045.79,289.593 1046.23,289.389 1046.51,288.774ZM1057.26,291.089C1057.06,291.588 1056.88,291.953 1056.73,292.185C1056.58,292.418 1056.55,292.676 1056.66,292.961C1056.76,293.246 1056.91,293.423 1057.12,293.492L1068.44,297.391C1068.99,297.58 1069.34,297.308 1069.48,296.575L1069.92,294.275C1070.08,293.475 1069.88,292.98 1069.33,292.791L1059.13,289.279C1058.58,289.09 1058.13,289.328 1057.79,289.992C1057.64,290.224 1057.46,290.59 1057.26,291.089ZM1070.81,352.925C1071.9,353.303 1072.73,354.138 1073.28,355.43C1073.83,356.721 1073.96,358.1 1073.68,359.567C1073.39,361.034 1072.78,362.138 1071.84,362.88C1070.89,363.621 1069.87,363.803 1068.77,363.424L1057.67,359.603C1057.12,359.413 1056.78,359.685 1056.63,360.419L1056.36,361.819C1056,363.685 1055.19,365.113 1053.93,366.102C1052.67,367.091 1051.32,367.336 1049.87,366.837C1048.42,366.338 1047.33,365.27 1046.61,363.634C1045.89,361.999 1045.71,360.214 1046.09,358.281L1046.36,356.881C1046.5,356.148 1046.3,355.686 1045.75,355.497L1023.47,347.828C1022.37,347.449 1021.54,346.631 1020.99,345.373C1020.43,344.115 1020.3,342.752 1020.58,341.285C1020.86,339.819 1021.48,338.698 1022.43,337.923C1023.38,337.148 1024.41,336.95 1025.51,337.328L1027.31,337.948C1027.86,338.137 1028.19,337.899 1028.33,337.232L1028.87,334.432C1028.96,333.965 1028.8,333.663 1028.4,333.526L1027.65,333.267C1026.7,332.94 1025.97,332.19 1025.45,331.015C1024.93,329.841 1024.8,328.587 1025.06,327.254C1025.32,325.921 1025.87,324.92 1026.72,324.253C1027.57,323.585 1028.49,323.423 1029.49,323.768L1050.49,330.998C1051.04,331.187 1051.39,330.915 1051.53,330.182L1051.74,329.082C1051.9,328.282 1051.7,327.787 1051.15,327.598L1036.22,322.459C1034.48,321.857 1033.14,320.507 1032.21,318.41C1031.28,316.313 1031.05,314.098 1031.5,311.765L1032.23,307.965C1032.68,305.631 1033.7,303.847 1035.27,302.61C1036.84,301.374 1038.5,301.057 1040.25,301.66L1071.75,312.505C1073.5,313.107 1074.84,314.457 1075.77,316.554C1076.7,318.651 1076.93,320.866 1076.48,323.199L1075.75,326.999C1075.29,329.333 1074.28,331.117 1072.71,332.354C1071.14,333.59 1069.47,333.907 1067.72,333.304L1063.08,331.703C1062.53,331.514 1062.17,331.819 1062.02,332.619L1061.8,333.719C1061.66,334.453 1061.87,334.914 1062.42,335.103L1071.94,338.383C1072.94,338.727 1073.69,339.465 1074.19,340.598C1074.69,341.73 1074.81,342.963 1074.56,344.296C1074.3,345.629 1073.73,346.642 1072.85,347.334C1071.97,348.027 1071.05,348.209 1070.1,347.882L1060.58,344.603C1060.03,344.414 1059.68,344.686 1059.54,345.419L1059.09,347.719C1058.95,348.452 1059.15,348.914 1059.7,349.103L1070.81,352.925ZM1048.82,344.181L1049.26,341.881C1049.41,341.148 1049.2,340.687 1048.65,340.497L1039.35,337.296C1038.75,337.089 1038.38,337.352 1038.24,338.086L1037.79,340.386C1037.65,341.119 1037.88,341.589 1038.48,341.795L1047.78,344.997C1048.33,345.187 1048.68,344.915 1048.82,344.181ZM1041.95,316.005L1065.06,323.958C1065.61,324.148 1065.96,323.842 1066.11,323.042L1066.62,320.443C1066.76,319.709 1066.55,319.248 1066,319.059L1042.9,311.105C1042.35,310.916 1042.01,311.188 1041.87,311.921L1041.36,314.521C1041.21,315.321 1041.4,315.816 1041.95,316.005ZM1012.69,312.222C1011.79,313.265 1010.75,313.421 1009.56,312.691C1008.37,311.961 1007.79,310.786 1007.84,309.166C1007.88,303.99 1009.44,299.372 1012.52,295.312C1018.03,288.105 1022.89,279.112 1027.11,268.334C1027.73,266.771 1028.67,265.691 1029.93,265.094C1031.2,264.498 1032.45,264.59 1033.68,265.371C1034.92,266.152 1035.76,267.367 1036.22,269.016C1036.67,270.666 1036.61,272.281 1036.04,273.862C1033.8,279.917 1031.47,285.195 1029.05,289.696C1028.74,290.227 1028.49,290.926 1028.33,291.793L1017.25,348.991C1016.91,350.725 1016.17,352.032 1015.01,352.914C1013.85,353.795 1012.62,354.012 1011.32,353.564C1010.02,353.117 1009.04,352.138 1008.37,350.628C1007.7,349.119 1007.54,347.497 1007.87,345.764L1014.69,310.564C1014.72,310.431 1014.67,310.31 1014.56,310.2C1014.45,310.09 1014.35,310.093 1014.28,310.21L1012.69,312.222Z" style="fill:rgb(232,70,0);fill-rule:nonzero;"/>
                    <path d="M1133.39,391.978C1139.28,375.721 1142.96,359.365 1144.42,342.909C1144.6,341.16 1145.2,339.759 1146.24,338.704C1147.28,337.65 1148.43,337.301 1149.69,337.657C1151.12,338.05 1152.27,338.987 1153.13,340.468C1154.01,341.948 1154.36,343.61 1154.21,345.452C1153,362.872 1149.12,380.56 1142.54,398.516C1141.9,400.248 1140.9,401.388 1139.54,401.937C1138.18,402.486 1136.86,402.305 1135.58,401.395C1134.35,400.516 1133.53,399.168 1133.12,397.351C1132.71,395.533 1132.8,393.742 1133.39,391.978ZM1096.17,385.761C1092.3,382.996 1090.13,376.915 1089.66,367.517C1089.19,358.12 1090.97,348.414 1094.99,338.402C1098.41,329.906 1102.66,321.735 1107.75,313.888C1108.75,312.417 1109.96,311.585 1111.39,311.392C1112.82,311.2 1114.15,311.666 1115.4,312.792C1116.51,313.82 1117.14,315.207 1117.28,316.953C1117.43,318.699 1117.09,320.249 1116.25,321.603C1111.33,329.333 1107.29,337.112 1104.14,344.94C1101.43,351.676 1099.96,357.927 1099.72,363.694C1099.48,369.461 1100.16,372.913 1101.75,374.052C1102.71,374.735 1104.48,374.378 1107.06,372.982C1109.64,371.586 1112.72,369.077 1116.28,365.454C1117.33,364.323 1118.53,363.852 1119.88,364.042C1121.24,364.233 1122.36,364.991 1123.23,366.318C1124.15,367.677 1124.55,369.233 1124.43,370.984C1124.31,372.735 1123.73,374.177 1122.69,375.308C1117.47,380.87 1112.46,384.515 1107.66,386.243C1102.87,387.971 1099.04,387.81 1096.17,385.761Z" style="fill:rgb(232,70,0);fill-rule:nonzero;"/>
                    <path d="M1187.2,435.796C1185.82,435.76 1184.64,435.115 1183.69,433.858C1182.73,432.601 1182.23,431.048 1182.18,429.199C1182.14,427.349 1182.57,425.762 1183.47,424.439L1202.49,396.65C1203.65,394.886 1205.12,393.983 1206.89,393.942C1208.66,393.9 1210.17,394.701 1211.42,396.344C1212.67,397.988 1213.29,399.99 1213.29,402.351C1213.28,404.713 1212.63,406.679 1211.32,408.249L1190.76,434.009C1189.78,435.235 1188.59,435.831 1187.2,435.796ZM1179.51,439.96C1180.57,441.362 1181.11,443.06 1181.12,445.056C1181.13,447.052 1180.61,448.762 1179.56,450.184C1178.51,451.606 1177.24,452.324 1175.74,452.338C1174.24,452.353 1172.96,451.659 1171.89,450.258L1171.56,449.823C1170.5,448.421 1169.96,446.722 1169.95,444.726C1169.93,442.73 1170.45,441.021 1171.51,439.599C1172.56,438.177 1173.83,437.459 1175.33,437.444C1176.83,437.43 1178.11,438.123 1179.17,439.525L1179.51,439.96Z" style="fill:rgb(232,70,0);fill-rule:nonzero;"/>
                </g>
            </g>
        </g>
    </g>
</svg>
