<?xml version="1.0" encoding="UTF-8" standalone="no"?>
<!DOCTYPE svg PUBLIC "-//W3C//DTD SVG 1.1//EN" "http://www.w3.org/Graphics/SVG/1.1/DTD/svg11.dtd">
<svg width="100%" height="100%" viewBox="0 0 1902 522" version="1.1" xmlns="http://www.w3.org/2000/svg" xmlns:xlink="http://www.w3.org/1999/xlink" xml:space="preserve" xmlns:serif="http://www.serif.com/" style="fill-rule:evenodd;clip-rule:evenodd;stroke-linejoin:round;stroke-miterlimit:2;">
    <g transform="matrix(1,0,0,1,-14.7066,-265.306)">
        <g>
            <g transform="matrix(1.07442,0,0,1.07442,-64.696,45.7019)">
                <g transform="matrix(1.35109,0,0,1.35109,-33.4179,-61.1352)">
                    <circle cx="92.451" cy="412.311" r="7.543" style="fill:white;"/>
                </g>
                <g transform="matrix(1.35109,0,0,1.35109,8.17693,-56.83)">
                    <circle cx="92.451" cy="412.311" r="7.543" style="fill:white;"/>
                </g>
                <g transform="matrix(1.35109,0,0,1.35109,80.4559,-112.556)">
                    <circle cx="92.451" cy="412.311" r="7.543" style="fill:white;"/>
                </g>
                <g transform="matrix(1.35109,0,0,1.35109,252.601,-217.388)">
                    <circle cx="92.451" cy="412.311" r="7.543" style="fill:white;"/>
                </g>
                <g transform="matrix(1.35109,0,0,1.35109,21.4965,-111.591)">
                    <circle cx="92.451" cy="412.311" r="7.543" style="fill:white;"/>
                </g>
                <g transform="matrix(1.35109,0,0,1.35109,66.0446,-51.4422)">
                    <circle cx="92.451" cy="412.311" r="7.543" style="fill:white;"/>
                </g>
                <g transform="matrix(1.35109,0,0,1.35109,113.04,11.3191)">
                    <circle cx="92.451" cy="412.311" r="7.543" style="fill:white;"/>
                </g>
                <g transform="matrix(1.35109,0,0,1.35109,152.352,36.4926)">
                    <circle cx="92.451" cy="412.311" r="7.543" style="fill:white;"/>
                </g>
                <g transform="matrix(1.35109,0,0,1.35109,212.354,-9.37141)">
                    <circle cx="92.451" cy="412.311" r="7.543" style="fill:white;"/>
                </g>
                <g transform="matrix(1.35109,0,0,1.35109,87.1765,83.3911)">
                    <circle cx="92.451" cy="412.311" r="7.543" style="fill:white;"/>
                </g>
                <g transform="matrix(1.35109,0,0,1.35109,119.807,-47.5496)">
                    <circle cx="92.451" cy="412.311" r="7.543" style="fill:white;"/>
                </g>
                <g transform="matrix(1.35109,0,0,1.35109,59.6084,-3.60712)">
                    <circle cx="92.451" cy="412.311" r="7.543" style="fill:white;"/>
                </g>
                <g transform="matrix(1.35109,0,0,1.35109,-13.0343,4.32574)">
                    <circle cx="92.451" cy="412.311" r="7.543" style="fill:white;"/>
                </g>
                <g transform="matrix(1.35109,0,0,1.35109,307.5,-239.734)">
                    <circle cx="92.451" cy="412.311" r="7.543" style="fill:white;"/>
                </g>
                <g transform="matrix(1.35109,0,0,1.35109,366.985,-266.459)">
                    <circle cx="92.451" cy="412.311" r="7.543" style="fill:white;"/>
                </g>
                <g transform="matrix(1.35109,0,0,1.35109,524.987,-306.506)">
                    <circle cx="92.451" cy="412.311" r="7.543" style="fill:white;"/>
                </g>
                <g transform="matrix(1.35109,0,0,1.35109,791.812,-336.962)">
                    <circle cx="92.451" cy="412.311" r="7.543" style="fill:white;"/>
                </g>
                <g transform="matrix(1.35109,0,0,1.35109,1089.71,-298.13)">
                    <circle cx="92.451" cy="412.311" r="7.543" style="fill:white;"/>
                </g>
                <g transform="matrix(1.35109,0,0,1.35109,1150.06,-312.613)">
                    <circle cx="92.451" cy="412.311" r="7.543" style="fill:white;"/>
                </g>
                <g transform="matrix(1.35109,0,0,1.35109,1124.39,-219.037)">
                    <circle cx="92.451" cy="412.311" r="7.543" style="fill:white;"/>
                </g>
                <g transform="matrix(1.35109,0,0,1.35109,1159.73,-238.403)">
                    <circle cx="92.451" cy="412.311" r="7.543" style="fill:white;"/>
                </g>
                <g transform="matrix(1.35109,0,0,1.35109,583.748,-317.651)">
                    <circle cx="92.451" cy="412.311" r="7.543" style="fill:white;"/>
                </g>
                <g transform="matrix(1.35109,0,0,1.35109,644.165,-328.686)">
                    <circle cx="92.451" cy="412.311" r="7.543" style="fill:white;"/>
                </g>
                <g transform="matrix(1.35109,0,0,1.35109,598.646,-293.65)">
                    <circle cx="92.451" cy="412.311" r="7.543" style="fill:white;"/>
                </g>
                <g transform="matrix(1.35109,0,0,1.35109,564.713,-242.338)">
                    <circle cx="92.451" cy="412.311" r="7.543" style="fill:white;"/>
                </g>
                <g transform="matrix(1.35109,0,0,1.35109,579.61,-183.301)">
                    <circle cx="92.451" cy="412.311" r="7.543" style="fill:white;"/>
                </g>
                <g transform="matrix(1.35109,0,0,1.35109,636.164,-159.576)">
                    <circle cx="92.451" cy="412.311" r="7.543" style="fill:white;"/>
                </g>
                <g transform="matrix(1.35109,0,0,1.35109,1203.74,-297.782)">
                    <circle cx="92.451" cy="412.311" r="7.543" style="fill:white;"/>
                </g>
                <g transform="matrix(1.35109,0,0,1.35109,1259.35,-283.128)">
                    <circle cx="92.451" cy="412.311" r="7.543" style="fill:white;"/>
                </g>
                <g transform="matrix(1.35109,0,0,1.35109,1122.17,-281.892)">
                    <circle cx="92.451" cy="412.311" r="7.543" style="fill:white;"/>
                </g>
                <g transform="matrix(1.35109,0,0,1.35109,1213.48,-225.046)">
                    <circle cx="92.451" cy="412.311" r="7.543" style="fill:white;"/>
                </g>
                <g transform="matrix(1.35109,0,0,1.35109,1180.71,-198.691)">
                    <circle cx="92.451" cy="412.311" r="7.543" style="fill:white;"/>
                </g>
                <g transform="matrix(1.35109,0,0,1.35109,1148.44,-174.966)">
                    <circle cx="92.451" cy="412.311" r="7.543" style="fill:white;"/>
                </g>
                <g transform="matrix(1.35109,0,0,1.35109,1214.09,-157.861)">
                    <circle cx="92.451" cy="412.311" r="7.543" style="fill:white;"/>
                </g>
                <g transform="matrix(1.35109,0,0,1.35109,1180.44,-134.688)">
                    <circle cx="92.451" cy="412.311" r="7.543" style="fill:white;"/>
                </g>
                <g transform="matrix(1.35109,0,0,1.35109,1238.34,-189.022)">
                    <circle cx="92.451" cy="412.311" r="7.543" style="fill:white;"/>
                </g>
                <g transform="matrix(1.35109,0,0,1.35109,1089.12,-150.689)">
                    <circle cx="92.451" cy="412.311" r="7.543" style="fill:white;"/>
                </g>
                <g transform="matrix(1.35109,0,0,1.35109,1147.88,-135.516)">
                    <circle cx="92.451" cy="412.311" r="7.543" style="fill:white;"/>
                </g>
                <g transform="matrix(1.35109,0,0,1.35109,1207.2,-120.343)">
                    <circle cx="92.451" cy="412.311" r="7.543" style="fill:white;"/>
                </g>
                <g transform="matrix(1.35109,0,0,1.35109,1168.78,-268.65)">
                    <circle cx="92.451" cy="412.311" r="7.543" style="fill:white;"/>
                </g>
                <g transform="matrix(1.35109,0,0,1.35109,1218.21,-255.585)">
                    <circle cx="92.451" cy="412.311" r="7.543" style="fill:white;"/>
                </g>
                <g transform="matrix(1.35109,0,0,1.35109,1269.77,-241.99)">
                    <circle cx="92.451" cy="412.311" r="7.543" style="fill:white;"/>
                </g>
                <g transform="matrix(1.35109,0,0,1.35109,1378.74,-213.023)">
                    <circle cx="92.451" cy="412.311" r="7.543" style="fill:white;"/>
                </g>
                <g transform="matrix(1.35109,0,0,1.35109,1343.56,-167.159)">
                    <circle cx="92.451" cy="412.311" r="7.543" style="fill:white;"/>
                </g>
                <g transform="matrix(1.35109,0,0,1.35109,1322.18,-112.674)">
                    <circle cx="92.451" cy="412.311" r="7.543" style="fill:white;"/>
                </g>
                <g transform="matrix(1.35109,0,0,1.35109,1339.08,-55.4302)">
                    <circle cx="92.451" cy="412.311" r="7.543" style="fill:white;"/>
                </g>
                <g transform="matrix(1.35109,0,0,1.35109,1503.92,-142.675)">
                    <circle cx="92.451" cy="412.311" r="7.543" style="fill:white;"/>
                </g>
                <g transform="matrix(1.35109,0,0,1.35109,1491.5,-81.2933)">
                    <circle cx="92.451" cy="412.311" r="7.543" style="fill:white;"/>
                </g>
                <g transform="matrix(1.35109,0,0,1.35109,1468.4,-23.3599)">
                    <circle cx="92.451" cy="412.311" r="7.543" style="fill:white;"/>
                </g>
                <g transform="matrix(1.35109,0,0,1.35109,1700.82,-1.63484)">
                    <circle cx="92.451" cy="412.311" r="7.543" style="fill:white;"/>
                </g>
                <g transform="matrix(1.35109,0,0,1.35109,1657.72,40.091)">
                    <circle cx="92.451" cy="412.311" r="7.543" style="fill:white;"/>
                </g>
                <g transform="matrix(1.35109,0,0,1.35109,1592.2,106.301)">
                    <circle cx="92.451" cy="412.311" r="7.543" style="fill:white;"/>
                </g>
                <g transform="matrix(1.35109,0,0,1.35109,1050.65,-250.68)">
                    <circle cx="92.451" cy="412.311" r="7.543" style="fill:white;"/>
                </g>
                <g transform="matrix(1.35109,0,0,1.35109,1060.36,-199.036)">
                    <circle cx="92.451" cy="412.311" r="7.543" style="fill:white;"/>
                </g>
                <g transform="matrix(1.35109,0,0,1.35109,1044.69,-144.082)">
                    <circle cx="92.451" cy="412.311" r="7.543" style="fill:white;"/>
                </g>
                <g transform="matrix(1.35109,0,0,1.35109,853.387,-335.638)">
                    <circle cx="92.451" cy="412.311" r="7.543" style="fill:white;"/>
                </g>
                <g transform="matrix(1.35109,0,0,1.35109,913.304,-333.914)">
                    <circle cx="92.451" cy="412.311" r="7.543" style="fill:white;"/>
                </g>
                <g transform="matrix(1.35109,0,0,1.35109,866.319,-295.119)">
                    <circle cx="92.451" cy="412.311" r="7.543" style="fill:white;"/>
                </g>
                <g transform="matrix(1.35109,0,0,1.35109,838.3,-237.358)">
                    <circle cx="92.451" cy="412.311" r="7.543" style="fill:white;"/>
                </g>
                <g transform="matrix(1.35109,0,0,1.35109,868.043,-183.477)">
                    <circle cx="92.451" cy="412.311" r="7.543" style="fill:white;"/>
                </g>
                <g transform="matrix(1.35109,0,0,1.35109,927.528,-167.959)">
                    <circle cx="92.451" cy="412.311" r="7.543" style="fill:white;"/>
                </g>
                <g transform="matrix(1.35109,0,0,1.35109,971.065,-332.621)">
                    <circle cx="92.451" cy="412.311" r="7.543" style="fill:white;"/>
                </g>
                <g transform="matrix(1.35109,0,0,1.35109,356.33,-207.733)">
                    <circle cx="92.451" cy="412.311" r="7.543" style="fill:white;"/>
                </g>
                <g transform="matrix(1.35109,0,0,1.35109,301.707,-184.559)">
                    <circle cx="92.451" cy="412.311" r="7.543" style="fill:white;"/>
                </g>
                <g transform="matrix(1.35109,0,0,1.35109,345.184,-151.896)">
                    <circle cx="92.451" cy="412.311" r="7.543" style="fill:white;"/>
                </g>
                <g transform="matrix(1.35109,0,0,1.35109,282.726,-120.778)">
                    <circle cx="92.451" cy="412.311" r="7.543" style="fill:white;"/>
                </g>
                <g transform="matrix(1.35109,0,0,1.35109,381.379,-88.3348)">
                    <circle cx="92.451" cy="412.311" r="7.543" style="fill:white;"/>
                </g>
                <g transform="matrix(1.35109,0,0,1.35109,313.183,-69.134)">
                    <circle cx="92.451" cy="412.311" r="7.543" style="fill:white;"/>
                </g>
                <g transform="matrix(1.35109,0,0,1.35109,242.945,-159.455)">
                    <circle cx="92.451" cy="412.311" r="7.543" style="fill:white;"/>
                </g>
            </g>
            <g>
                <g transform="matrix(1.45164,0,0,1.45164,227.231,-138.747)">
                    <circle cx="92.451" cy="412.311" r="7.543"/>
                </g>
                <g transform="matrix(1.45164,0,0,1.45164,268.728,-105.312)">
                    <circle cx="92.451" cy="412.311" r="7.543"/>
                </g>
                <g transform="matrix(1.45164,0,0,1.45164,309.988,-35.5981)">
                    <circle cx="92.451" cy="412.311" r="7.543"/>
                </g>
                <g transform="matrix(1.45164,0,0,1.45164,309.988,-35.5981)">
                    <circle cx="92.451" cy="412.311" r="7.543"/>
                </g>
                <g transform="matrix(1.45164,0,0,1.45164,378.042,-65.2385)">
                    <circle cx="92.451" cy="412.311" r="7.543"/>
                </g>
                <g transform="matrix(1.45164,0,0,1.45164,238.139,-48.877)">
                    <circle cx="92.451" cy="412.311" r="7.543"/>
                </g>
                <g transform="matrix(1.45164,0,0,1.45164,354.389,-193.582)">
                    <circle cx="92.451" cy="412.311" r="7.543"/>
                </g>
                <g transform="matrix(1.45164,0,0,1.45164,261.614,-238.932)">
                    <circle cx="92.451" cy="412.311" r="7.543"/>
                </g>
                <g transform="matrix(1.45164,0,0,1.45164,293.033,-191.21)">
                    <circle cx="92.451" cy="412.311" r="7.543"/>
                </g>
                <g transform="matrix(1.45164,0,0,1.45164,334.293,-145.683)">
                    <circle cx="92.451" cy="412.311" r="7.543"/>
                </g>
                <g transform="matrix(1.45164,0,0,1.45164,-20.9588,-42.9211)">
                    <circle cx="92.451" cy="412.311" r="7.543"/>
                </g>
                <g transform="matrix(1.45164,0,0,1.45164,28.5349,19.9258)">
                    <circle cx="92.451" cy="412.311" r="7.543"/>
                </g>
                <g transform="matrix(1.45164,0,0,1.45164,61.8804,112.342)">
                    <circle cx="92.451" cy="412.311" r="7.543"/>
                </g>
                <g transform="matrix(1.45164,0,0,1.45164,133.018,58.9888)">
                    <circle cx="92.451" cy="412.311" r="7.543"/>
                </g>
                <g transform="matrix(1.45164,0,0,1.45164,1.11743,157.543)">
                    <circle cx="92.451" cy="412.311" r="7.543"/>
                </g>
                <g transform="matrix(1.45164,0,0,1.45164,93.1956,-26.9686)">
                    <circle cx="92.451" cy="412.311" r="7.543"/>
                </g>
                <g transform="matrix(1.45164,0,0,1.45164,-26.1251,62.3797)">
                    <circle cx="92.451" cy="412.311" r="7.543"/>
                </g>
                <g transform="matrix(1.45164,0,0,1.45164,54.1057,-97.9042)">
                    <circle cx="92.451" cy="412.311" r="7.543"/>
                </g>
                <g transform="matrix(1.45164,0,0,1.45164,467.426,-278.02)">
                    <circle cx="92.451" cy="412.311" r="7.543"/>
                </g>
                <g transform="matrix(1.45164,0,0,1.45164,530.619,-289.995)">
                    <circle cx="92.451" cy="412.311" r="7.543"/>
                </g>
                <g transform="matrix(1.45164,0,0,1.45164,556.347,-246.305)">
                    <circle cx="92.451" cy="412.311" r="7.543"/>
                </g>
                <g transform="matrix(1.45164,0,0,1.45164,543.305,-181.985)">
                    <circle cx="92.451" cy="412.311" r="7.543"/>
                </g>
                <g transform="matrix(1.45164,0,0,1.45164,585.098,-131.003)">
                    <circle cx="92.451" cy="412.311" r="7.543"/>
                </g>
                <g transform="matrix(1.45164,0,0,1.45164,655.643,-130.411)">
                    <circle cx="92.451" cy="412.311" r="7.543"/>
                </g>
                <g transform="matrix(1.45164,0,0,1.45164,595.473,-302.325)">
                    <circle cx="92.451" cy="412.311" r="7.543"/>
                </g>
                <g transform="matrix(1.45164,0,0,1.45164,818.369,-315.13)">
                    <circle cx="92.451" cy="412.311" r="7.543"/>
                </g>
                <g transform="matrix(1.45164,0,0,1.45164,1123.49,-305.767)">
                    <circle cx="92.451" cy="412.311" r="7.543"/>
                </g>
                <g transform="matrix(1.45164,0,0,1.45164,1199.63,-281.693)">
                    <circle cx="92.451" cy="412.311" r="7.543"/>
                </g>
                <g transform="matrix(1.45164,0,0,1.45164,1259.77,-265.758)">
                    <circle cx="92.451" cy="412.311" r="7.543"/>
                </g>
                <g transform="matrix(1.45164,0,0,1.45164,1165.87,-249.065)">
                    <circle cx="92.451" cy="412.311" r="7.543"/>
                </g>
                <g transform="matrix(1.45164,0,0,1.45164,1151.82,-214.492)">
                    <circle cx="92.451" cy="412.311" r="7.543"/>
                </g>
                <g transform="matrix(1.45164,0,0,1.45164,1210.38,-202.956)">
                    <circle cx="92.451" cy="412.311" r="7.543"/>
                </g>
                <g transform="matrix(1.45164,0,0,1.45164,896.568,-138.18)">
                    <circle cx="92.451" cy="412.311" r="7.543"/>
                </g>
                <g transform="matrix(1.45164,0,0,1.45164,948.902,-311.855)">
                    <circle cx="92.451" cy="412.311" r="7.543"/>
                </g>
                <g transform="matrix(1.45164,0,0,1.45164,658.607,-313.292)">
                    <circle cx="92.451" cy="412.311" r="7.543"/>
                </g>
                <g transform="matrix(1.45164,0,0,1.45164,285.92,-163.645)">
                    <circle cx="92.451" cy="412.311" r="7.543"/>
                </g>
                <g transform="matrix(1.45164,0,0,1.45164,1173.36,-176.157)">
                    <circle cx="92.451" cy="412.311" r="7.543"/>
                </g>
                <g transform="matrix(1.45164,0,0,1.45164,1138.38,-148.887)">
                    <circle cx="92.451" cy="412.311" r="7.543"/>
                </g>
                <g transform="matrix(1.45164,0,0,1.45164,1268.8,-115.394)">
                    <circle cx="92.451" cy="412.311" r="7.543"/>
                </g>
                <g transform="matrix(1.45164,0,0,1.45164,1269.31,-185.042)">
                    <circle cx="92.451" cy="412.311" r="7.543"/>
                </g>
                <g transform="matrix(1.45164,0,0,1.45164,1233.22,-159.876)">
                    <circle cx="92.451" cy="412.311" r="7.543"/>
                </g>
                <g transform="matrix(1.45164,0,0,1.45164,1205.65,-131.717)">
                    <circle cx="92.451" cy="412.311" r="7.543"/>
                </g>
                <g transform="matrix(1.45164,0,0,1.45164,1136.29,-108.598)">
                    <circle cx="92.451" cy="412.311" r="7.543"/>
                </g>
                <g transform="matrix(1.45164,0,0,1.45164,1263.15,-74.5112)">
                    <circle cx="92.451" cy="412.311" r="7.543"/>
                </g>
                <g transform="matrix(1.45164,0,0,1.45164,1195.28,-67.9903)">
                    <circle cx="92.451" cy="412.311" r="7.543"/>
                </g>
                <g transform="matrix(1.45164,0,0,1.45164,1218.79,-235.976)">
                    <circle cx="92.451" cy="412.311" r="7.543"/>
                </g>
                <g transform="matrix(1.45164,0,0,1.45164,1270.39,-222.128)">
                    <circle cx="92.451" cy="412.311" r="7.543"/>
                </g>
                <g transform="matrix(1.45164,0,0,1.45164,1397.84,-160.253)">
                    <circle cx="92.451" cy="412.311" r="7.543"/>
                </g>
                <g transform="matrix(1.45164,0,0,1.45164,1364.87,-105.419)">
                    <circle cx="92.451" cy="412.311" r="7.543"/>
                </g>
                <g transform="matrix(1.45164,0,0,1.45164,1354.87,-41.6916)">
                    <circle cx="92.451" cy="412.311" r="7.543"/>
                </g>
                <g transform="matrix(1.45164,0,0,1.45164,1408.96,-20.2023)">
                    <circle cx="92.451" cy="412.311" r="7.543"/>
                </g>
                <g transform="matrix(1.45164,0,0,1.45164,1546.05,-73.9255)">
                    <circle cx="92.451" cy="412.311" r="7.543"/>
                </g>
                <g transform="matrix(1.45164,0,0,1.45164,1527.15,-10.9396)">
                    <circle cx="92.451" cy="412.311" r="7.543"/>
                </g>
                <g transform="matrix(1.45164,0,0,1.45164,1738.34,66.496)">
                    <circle cx="92.451" cy="412.311" r="7.543"/>
                </g>
                <g transform="matrix(1.45164,0,0,1.45164,1692.03,111.327)">
                    <circle cx="92.451" cy="412.311" r="7.543"/>
                </g>
                <g transform="matrix(1.45164,0,0,1.45164,1083.18,-198.587)">
                    <circle cx="92.451" cy="412.311" r="7.543"/>
                </g>
                <g transform="matrix(1.45164,0,0,1.45164,1066.82,-138.358)">
                    <circle cx="92.451" cy="412.311" r="7.543"/>
                </g>
                <g transform="matrix(1.45164,0,0,1.45164,1085.56,-248.62)">
                    <circle cx="92.451" cy="412.311" r="7.543"/>
                </g>
                <g transform="matrix(1.45164,0,0,1.45164,884.526,-313.707)">
                    <circle cx="92.451" cy="412.311" r="7.543"/>
                </g>
                <g transform="matrix(1.45164,0,0,1.45164,890.084,-286.382)">
                    <circle cx="92.451" cy="412.311" r="7.543"/>
                </g>
                <g transform="matrix(1.45164,0,0,1.45164,842.844,-243.311)">
                    <circle cx="92.451" cy="412.311" r="7.543"/>
                </g>
                <g transform="matrix(1.45164,0,0,1.45164,845.623,-175.694)">
                    <circle cx="92.451" cy="412.311" r="7.543"/>
                </g>
                <g transform="matrix(1.45164,0,0,1.45164,234.938,-198.917)">
                    <circle cx="92.451" cy="412.311" r="7.543"/>
                </g>
                <g transform="matrix(1.45164,0,0,1.45164,-89.6506,12.5156)">
                    <circle cx="92.451" cy="412.311" r="7.543"/>
                </g>
                <g transform="matrix(1.45164,0,0,1.45164,179.214,-176.39)">
                    <circle cx="92.451" cy="412.311" r="7.543"/>
                </g>
                <g transform="matrix(1.45164,0,0,1.45164,298.85,-227.631)">
                    <circle cx="92.451" cy="412.311" r="7.543"/>
                </g>
            </g>
        </g>
    </g>
</svg>
